<svg width="14" height="14" viewBox="0 0 14 14" fill="none" xmlns="http://www.w3.org/2000/svg">
    <rect x="10" y="10" width="3" height="3" fill="black" />
    <rect x="7" y="7" width="3" height="3" fill="black" />
    <rect x="4" y="4" width="3" height="3" fill="black" />
    <rect x="1" y="1" width="3" height="3" fill="black" />
    <rect x="4" y="1" width="3" height="3" fill="black" />
    <rect x="1" y="4" width="3" height="3" fill="black" />
    <rect x="7" y="1" width="3" height="3" fill="black" />
    <rect x="10" y="1" width="3" height="3" fill="black" />
    <rect x="1" y="7" width="3" height="3" fill="black" />
    <rect x="1" y="10" width="3" height="3" fill="black" />
    <rect y="1" width="1" height="12" fill="white" />
    <rect x="4" y="8" width="1" height="5" fill="white" />
    <rect x="6" y="8" width="1" height="3" fill="white" />
    <rect x="9" y="11" width="1" height="3" fill="white" />
    <rect x="7" y="5" width="1" height="2" fill="white" />
    <rect x="13" width="1" height="5" fill="white" />
    <rect y="13" width="5" height="1" fill="white" />
    <rect x="10" y="7" width="1" height="3" fill="white" />
    <rect x="13" y="10" width="1" height="3" fill="white" />
    <rect width="13" height="1" fill="white" />
    <rect x="4" y="7" width="3" height="1" fill="white" />
    <rect x="8" y="6" width="3" height="1" fill="white" />
    <rect x="11" y="9" width="3" height="1" fill="white" />
    <rect x="7" y="10" width="3" height="1" fill="white" />
    <rect x="10" y="13" width="4" height="1" fill="white" />
    <rect x="7" y="4" width="6" height="1" fill="white" />
</svg>