<svg width="140" height="140" viewBox="0 0 140 140" fill="none" xmlns="http://www.w3.org/2000/svg">
    <rect y="32" width="28" height="1" fill="#D9D9D9" />
    <rect x="32" width="1" height="28" fill="#D9D9D9" />
    <rect y="65" width="28" height="1" fill="#D9D9D9" />
    <rect x="32" y="37" width="1" height="24" fill="#D9D9D9" />
    <rect x="37" y="32" width="24" height="1" fill="#D9D9D9" />
    <rect x="65" width="1" height="28" fill="#D9D9D9" />
    <rect x="37" y="65" width="24" height="1" fill="#D9D9D9" />
    <rect x="65" y="37" width="1" height="24" fill="#D9D9D9" />
    <rect x="70" y="32" width="28" height="1" fill="#D9D9D9" />
    <rect x="102" width="1" height="28" fill="#D9D9D9" />
    <rect x="70" y="65" width="28" height="1" fill="#D9D9D9" />
    <rect x="102" y="37" width="1" height="24" fill="#D9D9D9" />
    <rect x="107" y="32" width="24" height="1" fill="#D9D9D9" />
    <rect x="135" width="1" height="28" fill="black" />
    <rect x="107" y="65" width="24" height="1" fill="#D9D9D9" />
    <rect x="135" y="37" width="1" height="24" fill="black" />
    <rect y="102" width="28" height="1" fill="#D9D9D9" />
    <rect x="32" y="70" width="1" height="28" fill="#D9D9D9" />
    <rect y="135" width="28" height="1" fill="black" />
    <rect x="32" y="107" width="1" height="24" fill="#D9D9D9" />
    <rect x="37" y="102" width="24" height="1" fill="#D9D9D9" />
    <rect x="65" y="70" width="1" height="28" fill="#D9D9D9" />
    <rect x="37" y="135" width="24" height="1" fill="black" />
    <rect x="65" y="107" width="1" height="24" fill="#D9D9D9" />
    <rect x="70" y="102" width="28" height="1" fill="#D9D9D9" />
    <rect x="102" y="70" width="1" height="28" fill="#D9D9D9" />
    <rect x="70" y="135" width="28" height="1" fill="black" />
    <rect x="102" y="107" width="1" height="24" fill="#D9D9D9" />
    <rect x="107" y="102" width="24" height="1" fill="#D9D9D9" />
    <rect x="135" y="70" width="1" height="28" fill="black" />
    <rect x="107" y="135" width="24" height="1" fill="black" />
    <rect x="135" y="107" width="1" height="24" fill="black" />
    <circle cx="102.5" cy="102.5" r="1.5" fill="#D9D9D9" />
    <circle cx="65.5" cy="102.5" r="1.5" fill="#D9D9D9" />
    <circle cx="32.5" cy="102.5" r="1.5" fill="#D9D9D9" />
    <circle cx="102.5" cy="135.5" r="1.5" fill="black" />
    <circle cx="65.5" cy="135.5" r="1.5" fill="black" />
    <circle cx="32.5" cy="135.5" r="1.5" fill="black" />
    <circle cx="135.5" cy="135.5" r="3.5" fill="black" />
    <circle cx="102.5" cy="65.5" r="1.5" fill="#D9D9D9" />
    <circle cx="65.5" cy="65.5" r="1.5" fill="#D9D9D9" />
    <circle cx="32.5" cy="65.5" r="1.5" fill="#D9D9D9" />
    <circle cx="102.5" cy="32.5" r="1.5" fill="#D9D9D9" />
    <circle cx="135.5" cy="102.5" r="1.5" fill="black" />
    <circle cx="135.5" cy="65.5" r="1.5" fill="black" />
    <circle cx="135.5" cy="32.5" r="1.5" fill="black" />
    <circle cx="65.5" cy="32.5" r="1.5" fill="#D9D9D9" />
    <circle cx="32.5" cy="32.5" r="1.5" fill="#D9D9D9" />
</svg>