<svg width="36" height="27" viewBox="0 0 36 27" fill="none" xmlns="http://www.w3.org/2000/svg">
    <path d="M34 25H33V24H34V25Z" fill="black" />
    <path d="M3 25H2V24H3V25Z" fill="black" />
    <path d="M2 26H1V25H2V26Z" fill="black" />
    <path d="M1 27H0V26H1V27Z" fill="black" />
    <path d="M3 3H2V2H3V3Z" fill="black" />
    <path d="M2 2H1V1H2V2Z" fill="black" />
    <path d="M1 1H0V0H1V1Z" fill="black" />
    <path d="M34 3H33V2H34V3Z" fill="black" />
    <path d="M35 2H34V1H35V2Z" fill="black" />
    <path d="M36 1H35V0H36V1Z" fill="black" />
    <path d="M35 26H34V25H35V26Z" fill="black" />
    <path d="M36 27H35V26H36V27Z" fill="black" />
    <path d="M4 24H32V23H4V24Z" fill="black" />
    <path d="M4 3H32V4H4V3Z" fill="black" />
</svg>